<svg xmlns="http://www.w3.org/2000/svg" viewBox="0 0 323.9 72" enable-background="new 0 0 323.9 72"><style type="text/css">.st0{fill:#49A7CC;}</style><path d="M45.4 13.6c2.6 0 4.9-2.3 4.9-4.9 0-3.2-4.9-8.8-4.9-8.8s-4.9 5.5-4.9 8.8c0 2.7 2.3 4.9 4.9 4.9zm-16.2 0c2.6 0 4.9-2.3 4.9-4.9 0-3.2-4.9-8.8-4.9-8.8s-4.9 5.5-4.9 8.8c0 2.7 2.3 4.9 4.9 4.9zm-16.2 0c2.6 0 4.9-2.3 4.9-4.9C17.8 5.5 13 0 13 0S8.1 5.5 8.1 8.8c0 2.6 2.3 4.8 4.9 4.8zm38.6 9.8c-.6-1.9-2.6-3.2-4.5-3.2H11.4c-2.3 0-3.9 1.3-4.5 3.2L0 42.8v25.9C0 70.4 1.6 72 3.2 72h3.2c1.9 0 3.2-1.6 3.2-3.2v-3.2h38.9v3.2c0 1.6 1.6 3.2 3.2 3.2h3.2c1.6 0 3.2-1.6 3.2-3.2v-26l-6.5-19.4zM11.4 55.8c-2.6 0-4.9-2.3-4.9-4.9S8.8 46 11.4 46s4.9 2.3 4.9 4.9-2.4 4.9-4.9 4.9zm35.6 0c-2.6 0-4.9-2.3-4.9-4.9S44.4 46 47 46s4.9 2.3 4.9 4.9-2.3 4.9-4.9 4.9zM6.5 39.6L11.4 25H47l4.9 14.6H6.5zM113.7 62.9c-3.3 1.7-7.5 2.6-12.4 2.6-6.4 0-11.5-2-15.4-6.1-3.9-4-5.8-9.3-5.8-15.9 0-7.1 2.2-12.8 6.5-17.1s9.8-6.5 16.4-6.5c4.3 0 7.8.6 10.6 1.8V29c-3-1.8-6.3-2.6-9.8-2.6-4.8 0-8.7 1.5-11.6 4.6-3 3.1-4.4 7.1-4.4 12.2 0 4.9 1.4 8.7 4.2 11.6 2.8 2.9 6.4 4.3 10.9 4.3 4.2 0 7.8-1 10.8-3 0 0 0 6.8 0 6.8zM145.5 64.7h-6.9v-4.9h-.1c-2.2 3.8-5.4 5.7-9.6 5.7-3.1 0-5.5-.8-7.3-2.5s-2.6-3.9-2.6-6.7c0-5.9 3.4-9.4 10.3-10.4l9.4-1.3c0-4.5-2.1-6.7-6.4-6.7-3.8 0-7.1 1.3-10.2 3.9v-6.2c3.3-2 7.2-3 11.5-3 8 0 11.9 3.9 11.9 11.8v20.3zm-6.9-15.5l-6.6.9c-2.1.3-3.6.8-4.6 1.5-1 .7-1.6 2-1.6 3.8 0 1.3.5 2.4 1.4 3.3 1 .9 2.2 1.3 3.8 1.3 2.2 0 4-.8 5.4-2.3s2.1-3.5 2.1-5.8v-2.7h.1zM172.4 40c-.9-.7-2.1-1-3.7-1-2.1 0-3.9 1-5.3 2.9s-2.1 4.5-2.1 7.8v15.1h-7.1V33.2h7.1v6.5h.1c.7-2.2 1.8-3.9 3.2-5.2 1.4-1.2 3.1-1.9 4.8-1.9 1.3 0 2.3.2 3 .6V40zM233 20.6l-12.1 44.1h-8.3l-8.4-30.9c-.3-1.3-.6-2.7-.6-4.3h-.1c-.1 1.5-.3 2.9-.7 4.2l-8.4 30.9h-8.5l-12.3-44.1h8l8 32.3c.3 1.4.5 2.8.6 4.2h.2c.1-1 .4-2.5.9-4.2l9-32.3h7.5l8.4 32.5c.3 1.1.5 2.4.6 3.9h.1c.1-1 .3-2.4.7-4.1l7.8-32.4h7.6v.2zM260.1 64.7h-6.9v-4.9h-.2c-2.2 3.8-5.4 5.7-9.6 5.7-3.1 0-5.5-.8-7.3-2.5s-2.6-3.9-2.6-6.7c0-5.9 3.4-9.4 10.3-10.4l9.4-1.3c0-4.5-2.1-6.7-6.4-6.7-3.8 0-7.1 1.3-10.2 3.9v-6.2c3.3-2 7.2-3 11.5-3 8 0 11.9 3.9 11.9 11.8v20.3h.1zm-6.9-15.5l-6.6.9c-2.1.3-3.6.8-4.6 1.5s-1.6 2-1.6 3.8c0 1.3.5 2.4 1.4 3.3 1 .9 2.2 1.3 3.8 1.3 2.2 0 4-.8 5.4-2.3s2.1-3.5 2.1-5.8v-2.7h.1zM266.8 63.7v-6.6c2.7 2 5.6 3 8.8 3 4.3 0 6.5-1.3 6.5-3.8 0-.7-.2-1.3-.6-1.8s-.9-.9-1.5-1.3-1.4-.7-2.2-1c-.9-.3-1.8-.7-2.8-1-1.3-.5-2.5-1.1-3.5-1.6s-1.9-1.2-2.6-2-1.2-1.6-1.6-2.5c-.3-.9-.5-2-.5-3.2 0-1.5.4-2.9 1.1-4s1.7-2.1 2.9-2.9c1.2-.8 2.6-1.4 4.1-1.8 1.5-.4 3.1-.6 4.8-.6 2.9 0 5.5.4 7.8 1.3v6.2c-2.2-1.5-4.8-2.3-7.6-2.3-.9 0-1.7.1-2.4.3-.7.2-1.3.4-1.9.8-.5.3-.9.7-1.2 1.2-.3.5-.4 1-.4 1.5 0 .7.1 1.3.4 1.7.3.5.7.9 1.3 1.2.6.4 1.2.7 2 1s1.7.6 2.7 1c1.4.6 2.6 1.1 3.6 1.7 1.1.6 2 1.2 2.8 2 .8.7 1.3 1.6 1.8 2.5.4 1 .6 2.1.6 3.4 0 1.6-.4 3-1.1 4.2s-1.7 2.2-3 3-2.7 1.4-4.3 1.7c-1.6.4-3.3.6-5.1.6-3.4-.1-6.4-.7-8.9-1.9zM323.9 64.7h-7.1V47.5c0-6.2-2.1-9.4-6.2-9.4-2.1 0-3.9.9-5.3 2.7s-2.2 4.1-2.2 6.9v16.9h-7.2V18.1h7.2v20.4h.1c2.4-4 5.8-6 10.2-6 7 0 10.5 4.3 10.5 12.8v19.4z" class="st0"/></svg>