<?xml version="1.0" encoding="utf-8"?>
<!-- Generator: Adobe Illustrator 16.0.0, SVG Export Plug-In . SVG Version: 6.00 Build 0)  -->
<!DOCTYPE svg PUBLIC "-//W3C//DTD SVG 1.1//EN" "http://www.w3.org/Graphics/SVG/1.1/DTD/svg11.dtd">
<svg version="1.1" id="Layer_1" xmlns="http://www.w3.org/2000/svg" xmlns:xlink="http://www.w3.org/1999/xlink" x="0px" y="0px"
	 width="612px" height="105.614px" viewBox="0 343.183 612 105.614" enable-background="new 0 343.183 612 105.614"
	 xml:space="preserve">
<g>
	<path fill="#878787" d="M68.164,382.025H43.109v9.626h14.33v15.314c-5.136,1.641-10.393,2.956-16.193,2.956
		c-17.719,0-30.197-11.705-30.197-28.335c0-16.192,12.583-28.557,28.78-28.557c8.967,0,18.048,2.519,26.804,7.33v-10.83
		c-11.708-4.925-17.836-6.347-26.589-6.347C17.29,343.184,0,359.923,0,381.915c0,21.879,16.852,37.856,39.716,37.856
		c10.393,0,18.489-1.754,28.448-6.127V382.025L68.164,382.025z"/>
	<path fill="#878787" d="M81.723,344.169v74.616h10.721l-0.051-32.433h4.487c5.472,0,10.006,1.798,19.852,17.115l9.854,15.317
		h12.795c-5.144-7.112-6.999-9.631-10.174-14.771c-5.687-9.299-9.85-16.193-16.63-20.68c7.984-3.171,12.471-9.627,12.471-18.271
		c0-12.908-9.408-20.895-24.503-20.895H81.723L81.723,344.169z M91.438,353.359h6.89c10.393,0,14.556,4.265,14.665,11.268
		c0.105,6.237-3.223,12.19-14.708,12.19H91.39L91.438,353.359z"/>
	<path fill="#878787" d="M172.481,343.731h-7.546l-32.057,75.053h10.94l9.408-21.988h31.729l9.956,21.988h10.939L172.481,343.731z
		 M168.54,360.143l12.037,27.022h-23.191L168.54,360.143z"/>
	<path fill="#878787" d="M213.673,344.166v74.62h10.725v-32.433h11.162c17.287,0,25.164-9.036,25.164-20.742
		c0-11.818-7.44-21.445-23.742-21.445H213.673L213.673,344.166z M224.398,353.793h12.583c9.736,0,12.692,5.913,12.692,11.381
		c0,7.44-5.146,11.639-13.133,11.639h-12.143V353.793z"/>
	<polygon fill="#878787" points="333.342,344.167 322.617,344.167 322.617,376.814 280.824,376.814 280.824,344.167 
		270.106,344.167 270.106,418.783 280.824,418.783 280.761,386.351 322.559,386.351 322.617,418.783 333.342,418.783 	"/>
	<rect x="348.21" y="343.491" fill="#878787" width="10.726" height="74.616"/>
	<path fill="#878787" d="M411.621,348.436c-5.254-3.503-10.947-5.252-16.634-5.252c-13.677,0-22.645,7.772-22.645,19.915
		c0,20.457,32.269,22.207,32.269,37.631c0,4.162-3.828,9.411-12.139,9.411c-7.331,0-14.229-3.831-19.692-10.83v13.564
		c6.233,4.706,12.799,6.896,20.888,6.896c12.04,0,20.902-8.537,20.902-20.242c0-23.741-32.276-23.523-32.276-37.853
		c0-5.253,4.929-8.862,11.822-8.862c5.026,0,11.158,1.747,17.505,7.769V348.436z"/>
	<path fill="#878787" d="M420.808,381.476c0,20.242,15.423,38.294,39.821,38.294c25.276,0,40.368-18.165,40.368-38.294
		c0-20.786-15.536-38.291-40.149-38.291C436.668,343.185,420.808,360.796,420.808,381.476 M431.222,381.476
		c0-16.411,12.358-28.448,28.992-28.448c16.739,0,29.097,12.037,29.097,28.448c0,16.306-12.357,28.448-29.097,28.448
		C443.58,409.924,431.222,397.781,431.222,381.476"/>
	<path fill="#878787" d="M601.109,415.266h1.295v-3.405h0.766c0.994,0,1.377,0.347,2.391,2.147l0.715,1.258h1.578l-0.977-1.56
		c-0.663-1.072-1.171-1.762-1.859-2.002v-0.043c1.359-0.081,2.285-1.011,2.285-2.308c0-0.872-0.666-2.107-2.65-2.107h-3.543V415.266
		z M602.404,410.749v-2.409h2.088c0.846,0,1.44,0.47,1.44,1.195c0,0.831-0.671,1.214-1.669,1.214H602.404z M610.603,411.136
		c0,3.441-2.797,6.236-6.237,6.236c-3.438,0-6.208-2.795-6.208-6.236s2.771-6.216,6.208-6.216
		C607.806,404.92,610.603,407.694,610.603,411.136 M611.838,411.136c0-4.13-3.335-7.451-7.473-7.451
		c-4.127,0-7.448,3.321-7.448,7.451s3.321,7.469,7.448,7.469C608.503,418.604,611.838,415.266,611.838,411.136"/>
	<polygon fill="#878787" points="521.527,353.793 521.527,376.813 550.628,376.813 550.628,386.353 521.527,386.353 
		521.527,418.785 510.803,418.785 510.803,344.166 612,344.166 612,353.793 586.184,353.793 586.184,418.785 575.463,418.785 
		575.463,353.793 	"/>
	<g>
		<path fill="#878787" d="M605.919,448.545v-6.281l5.919-8.55h-2.286l-2.873,4.361c-0.636,0.97-1.175,1.844-1.62,2.621
			c-0.466-0.84-0.966-1.675-1.509-2.511l-2.921-4.472h-2.39l5.719,8.55v6.281H605.919L605.919,448.545z M586.016,448.545v-11.654
			l7.786,11.654h2.017v-14.831h-1.882v11.644l-7.79-11.644h-2.013v14.831H586.016L586.016,448.545z M573.95,438.106
			c0.342-0.939,0.611-1.882,0.798-2.835c0.231,0.805,0.58,1.83,1.053,3.076l1.548,4.105h-5.028L573.95,438.106z M570.125,448.545
			l1.629-4.492h6.202l1.729,4.492h2.234l-6.066-14.831h-2.117l-5.694,14.831H570.125L570.125,448.545z M558.688,435.465h3.795
			c0.892,0,1.503,0.045,1.831,0.131c0.514,0.142,0.925,0.436,1.239,0.874c0.314,0.441,0.47,0.974,0.47,1.595
			c0,0.856-0.267,1.52-0.798,1.993c-0.532,0.473-1.434,0.707-2.7,0.707h-3.837V435.465z M558.688,448.545v-6.029h3.806
			c2.096,0,3.546-0.438,4.351-1.309c0.801-0.873,1.202-1.94,1.202-3.204c0-0.736-0.148-1.409-0.449-2.023
			c-0.3-0.611-0.697-1.092-1.188-1.43c-0.494-0.343-1.105-0.573-1.833-0.694c-0.519-0.094-1.271-0.142-2.256-0.142h-5.594v14.831
			H558.688z M540.636,448.545V435.92l4.288,12.625h1.771l4.31-12.414v12.414h1.893v-14.831h-2.642l-3.55,10.317
			c-0.359,1.047-0.622,1.841-0.791,2.38c-0.146-0.487-0.383-1.22-0.708-2.196l-3.508-10.501h-2.956v14.831H540.636L540.636,448.545z
			 M524.955,436.573c1.002-0.957,2.196-1.433,3.588-1.433c0.977,0,1.857,0.248,2.645,0.741c0.784,0.498,1.382,1.195,1.789,2.097
			s0.614,1.955,0.614,3.159c0,1.909-0.479,3.384-1.433,4.424c-0.953,1.039-2.168,1.557-3.646,1.557c-1.45,0-2.655-0.514-3.619-1.543
			c-0.959-1.029-1.439-2.435-1.439-4.224C523.453,439.121,523.953,437.525,524.955,436.573 M522.279,445.022
			c0.565,1.167,1.398,2.089,2.5,2.763c1.098,0.677,2.345,1.012,3.742,1.012c1.289,0,2.487-0.304,3.603-0.915
			c1.111-0.611,1.972-1.509,2.579-2.697c0.607-1.184,0.911-2.53,0.911-4.036c0-1.481-0.289-2.812-0.866-3.979
			c-0.577-1.17-1.416-2.082-2.514-2.738c-1.099-0.652-2.334-0.98-3.702-0.98c-2.092,0-3.798,0.698-5.12,2.09
			c-1.323,1.392-1.982,3.318-1.982,5.78C521.43,442.623,521.713,443.859,522.279,445.022 M515.436,446.169
			c-0.764,0.632-1.692,0.949-2.79,0.949c-0.905,0-1.744-0.231-2.521-0.697c-0.776-0.466-1.347-1.17-1.716-2.109
			c-0.366-0.943-0.549-2.041-0.549-3.305c0-0.978,0.155-1.927,0.466-2.846c0.308-0.922,0.846-1.654,1.612-2.203
			c0.764-0.545,1.717-0.817,2.855-0.817c0.995,0,1.816,0.244,2.47,0.738c0.656,0.494,1.153,1.277,1.498,2.358l1.931-0.456
			c-0.396-1.371-1.102-2.431-2.113-3.187s-2.259-1.133-3.743-1.133c-1.309,0-2.507,0.297-3.595,0.895
			c-1.091,0.598-1.93,1.471-2.521,2.621c-0.591,1.149-0.884,2.496-0.884,4.039c0,1.416,0.262,2.742,0.783,3.979
			c0.522,1.232,1.285,2.175,2.286,2.828c1.002,0.648,2.304,0.974,3.898,0.974c1.547,0,2.853-0.422,3.923-1.268
			c1.067-0.85,1.809-2.075,2.22-3.688l-1.964-0.497C516.713,444.591,516.198,445.534,515.436,446.169 M487.383,448.545v-5.139
			l2.427-2.368l5.28,7.507h2.59l-6.495-8.823l6.222-6.008h-2.658l-7.365,7.354v-7.354h-1.962v14.831H487.383z M482.127,448.545
			v-1.751h-9.106v-5.049h8.205v-1.74h-8.205v-4.54h8.762v-1.751H471.06v14.831H482.127z M457.417,448.545v-6.989h7.707v6.989h1.965
			v-14.831h-1.965v6.091h-7.707v-6.091h-1.962v14.831H457.417L457.417,448.545z M448.802,446.169
			c-0.764,0.632-1.692,0.949-2.79,0.949c-0.905,0-1.744-0.231-2.521-0.697c-0.772-0.466-1.347-1.17-1.712-2.109
			c-0.369-0.943-0.553-2.041-0.553-3.305c0-0.978,0.155-1.927,0.466-2.846c0.308-0.922,0.847-1.654,1.613-2.203
			c0.766-0.545,1.716-0.817,2.859-0.817c0.99,0,1.812,0.244,2.465,0.738c0.656,0.494,1.153,1.277,1.498,2.358l1.935-0.456
			c-0.4-1.371-1.105-2.431-2.117-3.187s-2.258-1.133-3.743-1.133c-1.309,0-2.507,0.297-3.595,0.895
			c-1.091,0.598-1.93,1.471-2.521,2.621c-0.59,1.149-0.884,2.496-0.884,4.039c0,1.416,0.262,2.742,0.784,3.979
			c0.521,1.232,1.284,2.175,2.285,2.828c1.002,0.648,2.304,0.974,3.899,0.974c1.546,0,2.852-0.422,3.922-1.268
			c1.067-0.85,1.81-2.075,2.221-3.688l-1.965-0.497C450.079,444.591,449.564,445.534,448.802,446.169 M425.435,446.445
			c0.515,0.787,1.226,1.375,2.135,1.765c0.904,0.394,2.029,0.587,3.373,0.587c1.057,0,2.01-0.193,2.855-0.58
			c0.847-0.391,1.495-0.933,1.947-1.63c0.453-0.697,0.681-1.44,0.681-2.23c0-0.794-0.207-1.499-0.618-2.11
			c-0.411-0.607-1.05-1.111-1.913-1.512c-0.594-0.27-1.688-0.584-3.28-0.946c-1.596-0.359-2.583-0.712-2.959-1.057
			c-0.387-0.342-0.576-0.78-0.576-1.315c0-0.611,0.269-1.137,0.811-1.571c0.546-0.436,1.409-0.653,2.597-0.653
			c1.14,0,2,0.238,2.583,0.719c0.584,0.48,0.929,1.188,1.029,2.123l1.882-0.142c-0.034-0.869-0.276-1.65-0.729-2.337
			c-0.453-0.688-1.098-1.209-1.938-1.562c-0.839-0.355-1.81-0.531-2.911-0.531c-0.997,0-1.902,0.169-2.721,0.504
			c-0.815,0.338-1.437,0.832-1.861,1.485c-0.425,0.648-0.635,1.35-0.635,2.096c0,0.684,0.172,1.298,0.521,1.848
			c0.346,0.549,0.874,1.012,1.582,1.381c0.546,0.29,1.502,0.598,2.862,0.925c1.364,0.329,2.245,0.57,2.642,0.726
			c0.621,0.235,1.063,0.524,1.336,0.874c0.27,0.349,0.404,0.753,0.404,1.219c0,0.459-0.141,0.881-0.421,1.271
			c-0.279,0.387-0.704,0.69-1.278,0.915c-0.572,0.222-1.235,0.331-1.984,0.331c-0.843,0-1.603-0.145-2.276-0.438
			c-0.673-0.294-1.17-0.678-1.491-1.153c-0.321-0.478-0.525-1.085-0.611-1.827l-1.851,0.162
			C424.644,444.771,424.917,445.661,425.435,446.445 M417.703,448.545v-13.08h4.906v-1.751h-11.753v1.751h4.886v13.08H417.703z
			 M408.594,448.545v-1.751h-9.105v-5.049h8.204v-1.74h-8.204v-4.54h8.761v-1.751h-10.722v14.831H408.594z M381.395,448.545V435.92
			l4.289,12.625h1.771l4.31-12.414v12.414h1.893v-14.831h-2.642l-3.55,10.317c-0.355,1.047-0.621,1.841-0.787,2.38
			c-0.148-0.487-0.387-1.22-0.708-2.196l-3.512-10.501h-2.956v14.831H381.395L381.395,448.545z M376.19,448.545v-1.751h-9.105
			v-5.049h8.204v-1.74h-8.204v-4.54h8.761v-1.751h-10.723v14.831H376.19z M351.318,448.545v-11.654l7.79,11.654h2.014v-14.831
			h-1.882v11.644l-7.79-11.644h-2.014v14.831H351.318L351.318,448.545z M333.978,438.106c0.345-0.939,0.61-1.882,0.801-2.835
			c0.228,0.805,0.58,1.83,1.053,3.076l1.548,4.105h-5.028L333.978,438.106z M330.154,448.545l1.63-4.492h6.202l1.729,4.492h2.234
			l-6.07-14.831h-2.113l-5.698,14.831H330.154L330.154,448.545z"/>
	</g>
</g>
</svg>
