<svg xmlns="http://www.w3.org/2000/svg" width="612" height="105.614" viewBox="0 343.183 612 105.614" enable-background="new 0 343.183 612 105.614"><path fill="#878787" d="M68.16 382.02H43.1v9.63h14.34v15.3c-5.14 1.66-10.4 2.97-16.2 2.97-17.7 0-30.2-11.7-30.2-28.33 0-16.2 12.6-28.57 28.8-28.57 8.96 0 18.04 2.52 26.8 7.33v-10.83c-11.72-4.93-17.84-6.35-26.6-6.35C17.3 343.18 0 359.92 0 381.92c0 21.87 16.85 37.85 39.72 37.85 10.4 0 18.5-1.75 28.44-6.13v-31.62zM81.72 344.17v74.6h10.72l-.05-32.42h4.48c5.47 0 10 1.8 19.85 17.12l9.86 15.3h12.78c-5.14-7.1-7-9.62-10.17-14.76-5.68-9.3-9.84-16.18-16.62-20.67 7.98-3.17 12.47-9.62 12.47-18.27 0-12.9-9.4-20.9-24.5-20.9H81.72zm9.72 9.2h6.9c10.38 0 14.54 4.25 14.65 11.26.1 6.23-3.23 12.2-14.72 12.2h-6.9l.06-23.47zM172.48 343.73h-7.54l-32.06 75.05h10.94l9.4-21.98h31.73l9.96 21.98h10.95l-33.37-75.05zm-3.94 16.4l12.04 27.03h-23.2l11.16-27.02zM213.67 344.17v74.62h10.73v-32.45h11.16c17.3 0 25.16-9.03 25.16-20.74 0-11.8-7.44-21.43-23.74-21.43h-23.3zm10.73 9.62h12.58c9.74 0 12.7 5.9 12.7 11.37 0 7.44-5.15 11.64-13.14 11.64H224.4v-23zM333.34 344.17h-10.72v32.64h-41.8v-32.63h-10.7v74.6h10.7l-.06-32.42h41.8l.06 32.43h10.72zM348.2 343.5h10.74v74.6H348.2zM411.62 348.44c-5.25-3.5-10.95-5.26-16.63-5.26-13.7 0-22.66 7.78-22.66 19.92 0 20.46 32.27 22.2 32.27 37.63 0 4.16-3.82 9.4-12.13 9.4-7.33 0-14.23-3.82-19.7-10.82v13.58c6.24 4.7 12.8 6.9 20.9 6.9 12.04 0 20.9-8.55 20.9-20.25 0-23.74-32.28-23.52-32.28-37.85 0-5.26 4.92-8.87 11.82-8.87 5.02 0 11.15 1.76 17.5 7.78v-12.14zM420.8 381.48c0 20.24 15.43 38.3 39.83 38.3 25.28 0 40.37-18.17 40.37-38.3 0-20.8-15.54-38.3-40.15-38.3-24.18 0-40.04 17.62-40.04 38.3m10.42 0c0-16.42 12.36-28.45 29-28.45 16.73 0 29.1 12.04 29.1 28.45 0 16.3-12.37 28.44-29.1 28.44-16.64 0-29-12.14-29-28.44M601.1 415.27h1.3v-3.4h.77c1 0 1.38.34 2.4 2.14l.7 1.27h1.58l-.97-1.56c-.67-1.07-1.17-1.76-1.86-2v-.04c1.36-.08 2.28-1 2.28-2.3 0-.88-.66-2.1-2.65-2.1h-3.54v8zm1.3-4.52v-2.4h2.1c.84 0 1.43.46 1.43 1.2 0 .82-.67 1.2-1.67 1.2h-1.86zm8.2.4c0 3.43-2.8 6.22-6.23 6.22-3.44 0-6.2-2.8-6.2-6.23s2.76-6.22 6.2-6.22c3.44 0 6.23 2.77 6.23 6.22m1.24 0c0-4.13-3.34-7.45-7.48-7.45-4.12 0-7.44 3.3-7.44 7.44s3.32 7.47 7.45 7.47c4.13 0 7.47-3.33 7.47-7.46"/><path fill="#878787" d="M521.53 353.8v23h29.1v9.55h-29.1v32.44H510.8v-74.63H612v9.62h-25.82v65h-10.72v-65zM605.92 448.55v-6.3l5.92-8.54h-2.3l-2.86 4.38c-.64.97-1.18 1.84-1.62 2.62-.47-.84-.97-1.68-1.5-2.52l-2.93-4.47h-2.4l5.73 8.56v6.28h1.96zm-19.9 0V436.9l7.78 11.65h2.02V433.7h-1.88v11.66l-7.8-11.65h-2v14.85H586zm-12.07-10.44c.34-.93.6-1.88.8-2.83.23.8.58 1.83 1.05 3.08l1.55 4.1h-5.03l1.63-4.34zm-3.83 10.44l1.63-4.5h6.2l1.73 4.5h2.24l-6.07-14.83h-2.1l-5.7 14.85h2.08zm-11.43-13.08h3.78c.9 0 1.5.05 1.83.14.53.14.94.43 1.25.87.32.44.47.97.47 1.6 0 .85-.26 1.52-.8 2-.53.46-1.43.7-2.7.7h-3.83v-5.3zm0 13.1v-6.04h3.8c2.1 0 3.54-.44 4.35-1.3.8-.9 1.2-1.95 1.2-3.22 0-.73-.15-1.4-.45-2.02-.3-.6-.7-1.1-1.2-1.43-.48-.34-1.1-.57-1.82-.7-.52-.1-1.27-.14-2.26-.14h-5.6v14.84h1.97zm-18.06 0V435.9l4.28 12.63h1.78l4.3-12.42v12.42h1.9V433.7h-2.64l-3.55 10.33c-.35 1.05-.62 1.84-.8 2.38-.13-.48-.37-1.2-.7-2.18l-3.5-10.5h-2.96v14.82h1.9zm-15.68-12c1-.94 2.2-1.42 3.58-1.42.98 0 1.86.25 2.65.74.77.5 1.37 1.2 1.78 2.1s.6 1.95.6 3.16c0 1.9-.47 3.38-1.42 4.42s-2.17 1.56-3.65 1.56c-1.44 0-2.64-.52-3.6-1.55-.97-1.02-1.45-2.43-1.45-4.22 0-2.23.5-3.83 1.5-4.78m-2.67 8.45c.56 1.17 1.4 2.1 2.5 2.77 1.1.66 2.34 1 3.74 1 1.3 0 2.5-.3 3.6-.92 1.1-.6 1.98-1.5 2.58-2.7.6-1.18.9-2.53.9-4.03 0-1.48-.28-2.8-.85-3.98-.58-1.17-1.42-2.08-2.52-2.74-1.1-.65-2.33-.98-3.7-.98-2.1 0-3.8.7-5.12 2.1-1.3 1.38-1.97 3.3-1.97 5.77 0 1.3.28 2.54.85 3.7m-6.84 1.15c-.77.63-1.7.95-2.8.95-.9 0-1.74-.23-2.5-.7-.8-.47-1.36-1.17-1.73-2.1-.36-.95-.54-2.05-.54-3.3 0-1 .16-1.94.47-2.86.3-.92.84-1.65 1.6-2.2.77-.55 1.73-.82 2.86-.82 1 0 1.8.25 2.46.74.66.5 1.16 1.28 1.5 2.36l1.93-.46c-.4-1.37-1.1-2.43-2.12-3.2s-2.26-1.12-3.74-1.12c-1.3 0-2.5.3-3.6.9-1.1.6-1.93 1.47-2.52 2.62-.6 1.15-.88 2.5-.88 4.04 0 1.4.26 2.74.78 3.97s1.28 2.17 2.3 2.82c1 .65 2.3.98 3.88.98 1.55 0 2.86-.43 3.93-1.27 1.06-.85 1.8-2.08 2.22-3.7l-1.97-.5c-.27 1.26-.78 2.2-1.54 2.84m-28.06 2.38v-5.14l2.43-2.36 5.3 7.5h2.58l-6.5-8.82 6.23-6h-2.65l-7.37 7.35v-7.36h-1.96v14.85h1.96zm-5.25 0v-1.76h-9.1v-5.05h8.2V440h-8.2v-4.53h8.75v-1.76h-10.72v14.85h11.07zm-24.7 0v-7h7.7v7h1.96V433.7h-1.98v6.1h-7.7v-6.1h-1.97v14.85h1.97zm-8.63-2.38c-.76.63-1.7.95-2.8.95-.9 0-1.73-.23-2.5-.7-.78-.47-1.36-1.17-1.72-2.1-.37-.95-.55-2.05-.55-3.3 0-1 .15-1.94.46-2.86.3-.92.84-1.65 1.6-2.2.77-.55 1.72-.82 2.86-.82 1 0 1.82.25 2.47.74.65.5 1.15 1.28 1.5 2.36l1.93-.46c-.4-1.37-1.1-2.43-2.12-3.2s-2.25-1.12-3.74-1.12c-1.3 0-2.5.3-3.6.9-1.08.6-1.92 1.47-2.5 2.62-.6 1.15-.9 2.5-.9 4.04 0 1.4.26 2.74.8 3.97.5 1.23 1.27 2.17 2.27 2.82 1 .65 2.3.98 3.9.98 1.55 0 2.85-.43 3.92-1.27 1.06-.85 1.8-2.08 2.2-3.7l-1.95-.5c-.27 1.26-.8 2.2-1.55 2.84m-23.37.27c.52.8 1.23 1.38 2.14 1.77.9.4 2.03.6 3.37.6 1.06 0 2-.2 2.86-.58.84-.4 1.5-.94 1.94-1.63.46-.7.7-1.45.7-2.24 0-.8-.22-1.5-.63-2.1-.4-.62-1.04-1.12-1.9-1.53-.6-.27-1.7-.58-3.28-.94-1.6-.37-2.6-.72-2.96-1.07-.4-.34-.58-.78-.58-1.3 0-.62.27-1.15.8-1.58.56-.44 1.42-.66 2.6-.66 1.15 0 2 .23 2.6.7.57.5.92 1.2 1.02 2.13l1.88-.14c-.03-.88-.27-1.66-.73-2.34-.45-.7-1.1-1.2-1.94-1.57-.82-.36-1.8-.54-2.9-.54-1 0-1.9.17-2.72.5-.8.34-1.43.84-1.86 1.5-.42.64-.63 1.34-.63 2.1 0 .67.16 1.3.5 1.84.35.54.88 1 1.6 1.38.54.3 1.5.6 2.85.92 1.37.33 2.25.57 2.64.73.62.23 1.06.52 1.33.87s.4.75.4 1.22c0 .46-.14.88-.42 1.27-.27.38-.7.68-1.26.9-.58.23-1.24.34-2 .34-.83 0-1.6-.15-2.26-.44-.68-.3-1.17-.68-1.5-1.15-.32-.48-.52-1.1-.6-1.83l-1.86.16c.02 1 .3 1.88.8 2.67m-7.72 2.1v-13.08h4.9v-1.76h-11.74v1.77h4.88v13.08h1.96zm-9.1 0v-1.76h-9.1v-5.05h8.2V440h-8.2v-4.53h8.75v-1.76h-10.72v14.85h11.06zm-27.2 0v-12.63l4.28 12.63h1.77l4.3-12.42v12.42h1.9V433.7h-2.63l-3.55 10.33c-.36 1.05-.63 1.84-.8 2.38-.14-.48-.38-1.2-.7-2.18l-3.5-10.5h-2.97v14.82h1.9zm-5.2 0v-1.76h-9.1v-5.05h8.2V440h-8.22v-4.53h8.77v-1.76h-10.73v14.85h11.07zm-24.88 0V436.9l7.8 11.65h2V433.7h-1.88v11.66l-7.8-11.65h-2v14.85h1.88zm-17.34-10.44c.34-.93.6-1.88.8-2.83.23.8.58 1.83 1.05 3.08l1.55 4.1h-5.03l1.63-4.34zm-3.83 10.44l1.63-4.5h6.2l1.73 4.5h2.25l-6.07-14.83h-2.1l-5.7 14.85h2.07z"/></svg>