<?xml version="1.0" encoding="utf-8"?>
<!-- Generator: Adobe Illustrator 22.0.0, SVG Export Plug-In . SVG Version: 6.00 Build 0)  -->
<svg version="1.1" id="Layer_1" xmlns="http://www.w3.org/2000/svg" xmlns:xlink="http://www.w3.org/1999/xlink" x="0px" y="0px"
	 viewBox="0 0 24 24" style="enable-background:new 0 0 24 24;" xml:space="preserve">
<style type="text/css">
	.st0{fill:none;}
	.st1{fill:#FFFFFF;}
</style>
<path class="st0" d="M0,0h24v24H0V0z"/>
<path class="st1" d="M17,5c0.8,0,1.5-0.7,1.5-1.5c0-1-1.5-2.7-1.5-2.7s-1.5,1.7-1.5,2.7C15.5,4.3,16.2,5,17,5z M12,5
	c0.8,0,1.5-0.7,1.5-1.5c0-1-1.5-2.7-1.5-2.7s-1.5,1.7-1.5,2.7C10.5,4.3,11.2,5,12,5z M7,5c0.8,0,1.5-0.7,1.5-1.5
	c0-1-1.5-2.7-1.5-2.7S5.5,2.5,5.5,3.5C5.5,4.3,6.2,5,7,5z M18.9,8c-0.2-0.6-0.8-1-1.4-1h-11C5.8,7,5.3,7.4,5.1,8L3,14v8
	c0,0.5,0.5,1,1,1h1c0.6,0,1-0.5,1-1v-1h12v1c0,0.5,0.5,1,1,1h1c0.5,0,1-0.5,1-1v-8L18.9,8z M6.5,18C5.7,18,5,17.3,5,16.5
	S5.7,15,6.5,15S8,15.7,8,16.5S7.3,18,6.5,18z M17.5,18c-0.8,0-1.5-0.7-1.5-1.5s0.7-1.5,1.5-1.5s1.5,0.7,1.5,1.5S18.3,18,17.5,18z
	 M5,13l1.5-4.5h11L19,13H5z"/>
</svg>
