<svg xmlns="http://www.w3.org/2000/svg" viewBox="2806 1326 264.77 456.3"><defs><style>.cls-1, .cls-17, .cls-9 { fill: none; stroke-miterlimit: 10; } .cls-1 { stroke: #0063b1; } .cls-1, .cls-9 { stroke-width: 7.966px; } .cls-2 { fill: #0063b1; } .cls-3 { fill: #0078d7; } .cls-4 { fill: #a0aeb2; } .cls-5 { fill: #859599; } .cls-6 { fill: #69797e; } .cls-7 { fill: #b3dbf2; } .cls-8 { fill: #3a96dd; } .cls-9 { stroke: #3a96dd; } .cls-10 { fill: #83beec; } .cls-11 { fill: #757575; } .cls-12 { fill: #e5e5e5; } .cls-13 { fill: #ccc; } .cls-14 { fill: #fff; } .cls-15 { fill: #da3b01; } .cls-16 { fill: #e4f577; } .cls-17 { stroke: gray; stroke-linecap: round; stroke-linejoin: round; stroke-width: 1.5px; } .cls-18 { fill: #a6a6a6; }</style></defs><g id="Group_93" transform="translate(1705 1166)"><path id="Path_89" d="M1227.62 462.48v66.1l9.73 55.66" class="cls-1"/><g id="Group_73" transform="translate(1218.075 455.637)"><circle id="Ellipse_53" cx="9.546" cy="9.546" r="9.546" class="cls-2"/><circle id="Ellipse_54" cx="4.323" cy="4.323" r="4.323" class="cls-3" transform="translate(5.223 5.223)"/></g><g id="Group_74" transform="translate(1221.137 522.099)"><circle id="Ellipse_55" cx="6.484" cy="6.484" r="6.484" class="cls-2"/><circle id="Ellipse_56" cx="2.972" cy="2.972" r="2.972" class="cls-3" transform="translate(3.512 3.512)"/></g><path id="Path_90" d="M1212.04 489.86l-.63-10.45-4.85.28-1 9.73z" class="cls-4"/><path id="Path_91" d="M1210.42 480.94l5.4 5.86a1.3 1.3 0 0 1-.1 1.9 1.4 1.4 0 0 1-1.88-.1l-4.86-5.5z" class="cls-4"/><path id="Path_92" d="M1205.56 489.4l5.5 8.2.35.46 5.95 3.42 2.26-1.9-4.32-4.3-.18-.55-3.33-7.66z" class="cls-5"/><path id="Path_93" d="M1211.05 497.6l4.05-2.88.18.54-3.87 2.8z" class="cls-6"/><path id="Path_94" d="M1212.58 407.2l-.9 40.15-2.8 30.54" class="cls-1"/><g id="Group_75" transform="translate(1205.197 440.868)"><circle id="Ellipse_57" cx="6.484" cy="6.484" r="6.484" class="cls-2"/><circle id="Ellipse_58" cx="2.972" cy="2.972" r="2.972" class="cls-3" transform="translate(3.512 3.512)"/></g><g id="Group_76" transform="translate(1204.566 473.558)"><circle id="Ellipse_59" cx="4.323" cy="4.323" r="4.323" class="cls-2"/><circle id="Ellipse_60" cx="1.981" cy="1.981" r="1.981" class="cls-3" transform="translate(2.341 2.342)"/></g><g id="Group_77" transform="translate(1204.206 398.36)"><circle id="Ellipse_61" cx="8.736" cy="8.736" r="8.736" class="cls-2"/><circle id="Ellipse_62" cx="3.963" cy="3.963" r="3.963" class="cls-3" transform="translate(4.773 4.773)"/></g><path id="Path_95" d="M1289.3 616.3h-140.48a3.8 3.8 0 0 1-3.78-3.78 3.8 3.8 0 0 1 3.78-3.78h140.5a3.8 3.8 0 0 1 3.77 3.78 3.87 3.87 0 0 1-3.8 3.78z" class="cls-7"/><path id="Path_96" d="M1316.5 609.1h-137.24a3.8 3.8 0 0 1-3.78-3.8 3.8 3.8 0 0 1 3.78-3.77h137.25a3.8 3.8 0 0 1 3.8 3.78 3.8 3.8 0 0 1-3.8 3.8z" class="cls-7"/><path id="Path_97" d="M1304.26 601.9h-133.2a3.8 3.8 0 0 1-3.78-3.8 3.8 3.8 0 0 1 3.78-3.77h133.2a3.8 3.8 0 0 1 3.8 3.78 3.8 3.8 0 0 1-3.8 3.8z" class="cls-7"/><ellipse id="Ellipse_63" cx="34.852" cy="6.034" class="cls-8" rx="34.852" ry="6.034" transform="translate(1205.107 597.028)"/><path id="Path_98" d="M1257.97 462.48l-10.36 67.18 3.8 55.57" class="cls-9"/><path id="Path_99" d="M1265.36 463.47c-8.1 10.63-40.26 12.8-49.72 3.33-1-14.23-3.6-54.4-4.4-66.73 8.1-10.63 40.25-12.8 49.7-3.33 1 14.95 3.6 54.48 4.42 66.73z" class="cls-10"/><g id="Group_78" transform="translate(1247.164 455.637)"><circle id="Ellipse_64" cx="9.546" cy="9.546" r="9.546" class="cls-2"/><circle id="Ellipse_65" cx="4.323" cy="4.323" r="4.323" class="cls-8" transform="translate(5.223 5.223)"/></g><g id="Group_79" transform="translate(1241.13 523.18)"><circle id="Ellipse_66" cx="6.484" cy="6.484" r="6.484" class="cls-2"/><circle id="Ellipse_67" cx="2.972" cy="2.972" r="2.972" class="cls-8" transform="translate(3.512 3.512)"/></g><path id="Path_100" d="M1239.42 583.97l1.98 14.77-21.43 3.87 14.4-18.63z" class="cls-2"/><path id="Path_101" d="M1255 585.05l1 14.32-17.84 8.28 11.9-22.5z" class="cls-3"/><g id="Group_80" transform="translate(1230.593 577.125)"><circle id="Ellipse_68" cx="6.484" cy="6.484" r="6.484" class="cls-2"/><circle id="Ellipse_69" cx="2.972" cy="2.972" r="2.972" class="cls-3" transform="translate(3.512 3.512)"/></g><g id="Group_81" transform="translate(1244.912 578.566)"><circle id="Ellipse_70" cx="6.484" cy="6.484" r="6.484" class="cls-2"/><circle id="Ellipse_71" cx="2.972" cy="2.972" r="2.972" class="cls-8" transform="translate(3.512 3.512)"/></g><g id="Group_82"><path id="Path_102" d="M1237.98 393.23l-11.17 1.7a2.63 2.63 0 0 1-2.96-2.15l-1.44-9.64a1.12 1.12 0 0 1 1-1.26l14.13-2.07a1.12 1.12 0 0 1 1.26 1l1.43 9.64a2.72 2.72 0 0 1-2.25 2.8z" class="cls-5"/><path id="Rectangle_47" d="M1222.6 384.82l16.3-2.44.12.7-16.3 2.45z" class="cls-6"/><path id="Rectangle_48" d="M1222.97 387.62l16.3-2.44.1.7-16.3 2.45z" class="cls-6"/><path id="Rectangle_49" d="M1223.42 390.4l16.3-2.43.1.7-16.3 2.45z" class="cls-6"/></g><path id="Path_103" d="M1251.67 375.3c-5.5 10.1-34.14 18.47-44.22 12.97-3.24-11.07-12.16-42.32-14.95-51.87 5.5-10.08 34.13-18.46 44.22-12.97 3.42 11.53 12.15 42.33 14.95 51.88z" class="cls-10"/><path id="Path_104" d="M1242.4 343.06s-.9 4.7-3.88 3.7-1.8-6.3-7.2-11.7c-11.7-9.92-35.12 5.4-38.82 1.34 5.5-10.1 34.14-18.46 44.22-12.97 3.42 11.53 2.88 10.1 5.67 19.63z" class="cls-8"/><path id="Path_105" d="M1248.6 364.6l-44.3 12.78-.18-.54 44.3-12.7z" class="cls-11"/><path id="Rectangle_50" d="M1208.76 374.04l30.8-8.85.96 3.27-30.8 8.85z" class="cls-12"/><circle id="Ellipse_72" cx="3.512" cy="3.512" r="3.512" transform="translate(1205.557 356.934)"/><circle id="Ellipse_73" cx="4.143" cy="4.143" r="4.143" transform="translate(1220.597 351.26)"/><circle id="Ellipse_74" cx="3.602" cy="3.602" r="3.602" class="cls-11" transform="translate(1204.026 372.514)"/><circle id="Ellipse_75" cx="1.711" cy="1.711" r="1.711" class="cls-13" transform="translate(1205.917 374.405)"/><circle id="Ellipse_76" cx="3.602" cy="3.602" r="3.602" class="cls-11" transform="translate(1234.826 363.598)"/><circle id="Ellipse_77" cx="1.711" cy="1.711" r="1.711" class="cls-13" transform="translate(1236.717 365.489)"/><path id="Path_106" d="M1231.58 436.27l-11.8.82a.74.74 0 0 1-.8-.73l-1.26-19.64a.74.74 0 0 1 .72-.8l11.8-.82a.97.97 0 0 1 .54.2.78.78 0 0 1 .27.53l1.26 19.63a.97.97 0 0 1-.17.54 1.47 1.47 0 0 1-.55.27zm-11.07-.9l10.18-.72-1.17-18-10.16.7z" class="cls-14"/><circle id="Ellipse_78" cx="1.981" cy="1.981" r="1.981" class="cls-15" transform="translate(1235.096 415.381)"/><circle id="Ellipse_79" cx="1.981" cy="1.981" r="1.981" class="cls-16" transform="translate(1235.546 423.216)"/><circle id="Ellipse_80" cx="1.981" cy="1.981" r="1.981" class="cls-15" transform="translate(1236.087 431.051)"/><path id="Rectangle_51" d="M1214.74 372.3l1.12-.33.95 3.3-1.12.3z" class="cls-11"/><path id="Rectangle_52" d="M1220.3 370.66l1.14-.32.94 3.3-1.13.3z" class="cls-11"/><path id="Rectangle_53" d="M1225.9 369.12l1.13-.33.95 3.28-1.13.32z" class="cls-11"/><path id="Rectangle_54" d="M1231.4 367.5l1.12-.3.94 3.28-1.12.32z" class="cls-11"/><g id="Group_83"><path id="Path_107" d="M1214.3 333.07c-1-2.88-4.15-6.85-8.83-10.54a38.44 38.44 0 0 1-11.26 7.2c6.22-4.4 8.3-11.62 5.77-16.2-.8 2.42-2.97 5.4-6.12 8.2a10.44 10.44 0 0 0-1.8-5.86 85.42 85.42 0 0 0-9.2-2.34" class="cls-17"/></g><ellipse id="Ellipse_81" cx="4.503" cy="3.422" class="cls-15" rx="4.503" ry="3.422" transform="matrix(.939 -.343 .343 .939 1175.728 312.379)"/><path id="Rectangle_55" d="M1199.62 358.43l12.5-6.44 2.1 4.07-12.5 6.44z" class="cls-10"/><path id="Rectangle_56" d="M1214.6 349.9l20.22-1.25.3 5.04-20.2 1.22z" class="cls-10"/><path id="Path_109" d="M1258.5 399.44l6.86 41.43-5.5 39.17" class="cls-9"/><g id="Group_84" transform="translate(1248.875 389.985)"><circle id="Ellipse_82" cx="8.736" cy="8.736" r="8.736" class="cls-2"/><circle id="Ellipse_83" cx="3.963" cy="3.963" r="3.963" class="cls-8" transform="translate(4.773 4.773)"/></g><g id="Group_85" transform="translate(1258.871 434.383)"><circle id="Ellipse_84" cx="6.484" cy="6.484" r="6.484" class="cls-2"/><circle id="Ellipse_85" cx="2.972" cy="2.972" r="2.972" class="cls-8" transform="translate(3.512 3.512)"/></g><g id="Group_86"><path id="Path_110" d="M1253.47 487.8l3.42-6.23 6.3-2.43 4.3 7.3z" class="cls-4"/><path id="Path_111" d="M1254.1 487.8l-4.32 6.65a1.36 1.36 0 0 0 .45 1.9 1.3 1.3 0 0 0 1.8-.46l3.87-6.3z" class="cls-4"/><path id="Path_112" d="M1267.52 486.44l-.9 9.8v.55l-.72 6.48-8.47.8-1.98-7.02-.1-.45-1.88-8.8z" class="cls-5"/><path id="Path_113" d="M1266.62 496.25l-11.26.36.1.46 11.16-.27z" class="cls-6"/></g><g id="Group_87" transform="translate(1255.539 475.72)"><circle id="Ellipse_86" cx="4.323" cy="4.323" r="4.323" class="cls-2"/><circle id="Ellipse_87" cx="1.981" cy="1.981" r="1.981" class="cls-8" transform="translate(2.341 2.342)"/></g><g id="Group_88"><path id="Path_114" d="M1353.25 280.32a12.5 12.5 0 0 0 12.52-12.52 12.5 12.5 0 0 0-12.52-12.52h-25.04a30.13 30.13 0 0 0-30.06-30.08h-10v-7.56a30.13 30.13 0 0 0-30.08-30.08h-12.52A27.56 27.56 0 0 0 1218 160h-2.63a36.72 36.72 0 0 0-36.74 36.74v8.38a37.53 37.53 0 0 0-37.55 37.55h-21.26A18.8 18.8 0 0 0 1101 261.5a18.8 18.8 0 0 0 18.82 18.82h233.43z" class="cls-18"/><path id="Path_115" d="M1276.25 279.42h22.97c7.56 0 13.7-5.68 13.7-12.6 0-6.95-6.14-12.62-13.7-12.62h-22.97v-.36c0-9.2-8.1-16.75-18.2-16.75v-.37c0-9.2-8.1-16.75-18.18-16.75h-.36" class="cls-13"/><path id="Path_116" d="M1273.2 279.42h21.15a12.64 12.64 0 0 0 12.6-12.6 12.64 12.64 0 0 0-12.6-12.62h-21.16v-.36a16.78 16.78 0 0 0-16.76-16.75v-.37a16.78 16.78 0 0 0-16.75-16.75h-.37" class="cls-18"/></g><path id="Path_117" d="M1239.7 358.83a3.12 3.12 0 0 1-3.16-3.88l2.6-6.4 3.25 6.04a3.06 3.06 0 0 1-2.7 4.22z" class="cls-8"/><path id="Path_67" d="M1132.63 305.05a5.44 5.44 0 0 1-5.15-7.02l5.15-10.76 5.14 10.76a5.37 5.37 0 0 1-5.15 7.02z" class="cls-10"/><path id="Path_67-2" d="M1258.63 304.78a5.44 5.44 0 0 1-5.15-7.02l5.15-10.76 5.14 10.76a5.37 5.37 0 0 1-5.15 7.02z" class="cls-10"/><path id="Path_67-3" d="M1320.63 308.78a5.44 5.44 0 0 1-5.15-7.02l5.15-10.76 5.14 10.76a5.37 5.37 0 0 1-5.15 7.02z" class="cls-10"/><path id="Path_67-4" d="M1148.63 389.05a5.44 5.44 0 0 1-5.15-7.02l5.15-10.76 5.14 10.76a5.37 5.37 0 0 1-5.15 7.02z" class="cls-10"/><path id="Path_130" d="M1121.63 364.05a5.44 5.44 0 0 1-5.15-7.02l5.15-10.76 5.14 10.76a5.37 5.37 0 0 1-5.15 7.02z" class="cls-10"/><path id="Path_126" d="M1175.63 484.05a5.44 5.44 0 0 1-5.15-7.02l5.15-10.76 5.14 10.76a5.37 5.37 0 0 1-5.15 7.02z" class="cls-10"/><path id="Path_120" d="M1122.63 429.05a5.44 5.44 0 0 1-5.15-7.02l5.15-10.76 5.14 10.76a5.37 5.37 0 0 1-5.15 7.02z" class="cls-10"/><path id="Path_127" d="M1117.63 518.05a5.44 5.44 0 0 1-5.15-7.02l5.15-10.76 5.14 10.76a5.37 5.37 0 0 1-5.15 7.02z" class="cls-10"/><path id="Path_129" d="M1213.4 520.53a4.67 4.67 0 0 1-4.43-6.03l4.42-9.23 4.4 9.23a4.6 4.6 0 0 1-4.4 6.03z" class="cls-10"/><path id="Path_131" d="M1343.63 342.05a5.44 5.44 0 0 1-5.15-7.02l5.15-10.76 5.14 10.76a5.37 5.37 0 0 1-5.15 7.02z" class="cls-10"/><path id="Path_123" d="M1352.63 429.05a5.44 5.44 0 0 1-5.15-7.02l5.15-10.76 5.14 10.76a5.37 5.37 0 0 1-5.15 7.02z" class="cls-10"/><path id="Path_128" d="M1359.63 533.05a5.44 5.44 0 0 1-5.15-7.02l5.15-10.76 5.14 10.76a5.37 5.37 0 0 1-5.15 7.02z" class="cls-10"/><path id="Path_118" d="M1287.63 371.05a5.44 5.44 0 0 1-5.15-7.02l5.15-10.76 5.14 10.76a5.37 5.37 0 0 1-5.15 7.02z" class="cls-10"/><path id="Path_125" d="M1310.63 464.05a5.44 5.44 0 0 1-5.15-7.02l5.15-10.76 5.14 10.76a5.37 5.37 0 0 1-5.15 7.02z" class="cls-10"/></g></svg>