<?xml version="1.0" standalone="no"?>
<!DOCTYPE svg PUBLIC "-//W3C//DTD SVG 20010904//EN"
 "http://www.w3.org/TR/2001/REC-SVG-20010904/DTD/svg10.dtd">
<svg version="1.0" xmlns="http://www.w3.org/2000/svg"
 width="700.000000pt" height="700.000000pt" viewBox="0 0 700.000000 700.000000"
 preserveAspectRatio="xMidYMid meet">
<metadata>
Created by potrace 1.11, written by Peter Selinger 2001-2013
</metadata>
<g transform="translate(0.000000,700.000000) scale(0.100000,-0.100000)"
fill="#000000" stroke="none">
<path d="M1953 6658 c-157 -200 -285 -417 -327 -552 -72 -227 59 -470 293
-546 68 -22 203 -17 273 10 207 78 323 297 271 510 -15 63 -110 269 -139 301
-8 8 -14 19 -14 22 0 24 -253 357 -271 357 -4 0 -42 -46 -86 -102z"/>
<path d="M3420 6669 c-172 -216 -316 -467 -345 -604 -34 -163 24 -321 157
-430 158 -129 424 -117 565 27 56 57 65 68 85 106 75 143 67 300 -24 476 -17
33 -38 75 -46 91 -43 84 -293 425 -312 425 -4 0 -40 -41 -80 -91z"/>
<path d="M4912 6713 c-160 -194 -317 -450 -367 -598 -20 -59 -26 -169 -14
-228 32 -147 156 -282 296 -323 288 -84 565 121 565 415 -1 162 -117 388 -361
699 -35 45 -68 82 -72 82 -4 0 -25 -21 -47 -47z"/>
<path d="M1790 4944 c-83 -22 -138 -54 -199 -115 -66 -65 -96 -122 -151 -284
-23 -66 -54 -156 -70 -200 -15 -44 -36 -102 -45 -130 -18 -55 -72 -210 -190
-550 -42 -121 -118 -341 -169 -490 l-92 -270 1 -1190 1 -1190 25 -56 c31 -65
84 -120 148 -151 43 -21 60 -23 251 -25 197 -3 207 -2 264 22 73 30 127 81
158 149 20 45 24 71 28 231 l5 180 1738 0 c956 0 1742 -2 1747 -5 4 -3 10 -86
12 -185 3 -167 5 -184 27 -228 32 -62 91 -115 160 -143 53 -22 68 -23 261 -21
191 2 208 4 251 25 64 31 117 86 148 151 l25 56 1 1190 1 1190 -47 140 c-26
77 -65 192 -87 255 -22 63 -81 234 -132 380 -50 146 -106 308 -125 360 -18 52
-53 154 -78 225 -25 72 -64 182 -86 247 -23 64 -41 119 -41 123 0 19 -65 136
-97 174 -43 50 -120 101 -190 128 -46 17 -132 18 -1723 19 -1424 2 -1683 0
-1730 -12z m3165 -424 l150 0 133 -402 c73 -222 137 -412 142 -423 4 -11 41
-119 80 -239 40 -121 74 -225 77 -233 4 -11 -330 -13 -2037 -13 -1630 0 -2041
3 -2037 13 2 6 100 301 218 654 l214 643 375 2 c206 2 861 2 1455 1 594 -2
1148 -3 1230 -3z m-2930 -1917 c179 -56 304 -223 306 -410 3 -236 -181 -429
-418 -439 -338 -13 -558 343 -398 644 58 110 198 207 317 219 29 3 54 7 56 8
7 6 89 -7 137 -22z m3201 1 c193 -53 320 -233 310 -437 -6 -121 -43 -204 -126
-288 -45 -45 -146 -105 -192 -113 -13 -3 -23 -5 -23 -6 0 -7 -141 -6 -178 1
-98 18 -212 93 -271 178 -69 99 -95 255 -61 368 49 165 194 291 355 310 25 2
46 6 48 8 6 5 86 -7 138 -21z"/>
</g>
</svg>
