<svg xmlns="http://www.w3.org/2000/svg" width="700pt" height="700pt" version="1" viewBox="0 0 700.000000 700.000000"><path d="M195.3 34.2c-15.7 20-28.5 41.7-32.7 55.2-7.2 22.7 5.9 47 29.3 54.6 6.8 2.2 20.3 1.7 27.3-1 20.7-7.8 32.3-29.7 27.1-51-1.5-6.3-11-26.9-13.9-30.1-.8-.8-1.4-1.9-1.4-2.2 0-2.4-25.3-35.7-27.1-35.7-.4 0-4.2 4.6-8.6 10.2zM342 33.1c-17.2 21.6-31.6 46.7-34.5 60.4-3.4 16.3 2.4 32.1 15.7 43 15.8 12.9 42.4 11.7 56.5-2.7 5.6-5.7 6.5-6.8 8.5-10.6 7.5-14.3 6.7-30-2.4-47.6-1.7-3.3-3.8-7.5-4.6-9.1C376.9 58.1 351.9 24 350 24c-.4 0-4 4.1-8 9.1zM491.2 28.7c-16 19.4-31.7 45-36.7 59.8-2 5.9-2.6 16.9-1.4 22.8 3.2 14.7 15.6 28.2 29.6 32.3 28.8 8.4 56.5-12.1 56.5-41.5-.1-16.2-11.7-38.8-36.1-69.9-3.5-4.5-6.8-8.2-7.2-8.2-.4 0-2.5 2.1-4.7 4.7zM179 205.6c-8.3 2.2-13.8 5.4-19.9 11.5-6.6 6.5-9.6 12.2-15.1 28.4-2.3 6.6-5.4 15.6-7 20-1.5 4.4-3.6 10.2-4.5 13-1.8 5.5-7.2 21-19 55-4.2 12.1-11.8 34.1-16.9 49l-9.2 27 .1 119 .1 119 2.5 5.6c3.1 6.5 8.4 12 14.8 15.1 4.3 2.1 6 2.3 25.1 2.5 19.7.3 20.7.2 26.4-2.2 7.3-3 12.7-8.1 15.8-14.9 2-4.5 2.4-7.1 2.8-23.1l.5-18h173.8c95.6 0 174.2.2 174.7.5.4.3 1 8.6 1.2 18.5.3 16.7.5 18.4 2.7 22.8 3.2 6.2 9.1 11.5 16 14.3 5.3 2.2 6.8 2.3 26.1 2.1 19.1-.2 20.8-.4 25.1-2.5 6.4-3.1 11.7-8.6 14.8-15.1l2.5-5.6.1-119 .1-119-4.7-14c-2.6-7.7-6.5-19.2-8.7-25.5-2.2-6.3-8.1-23.4-13.2-38-5-14.6-10.6-30.8-12.5-36-1.8-5.2-5.3-15.4-7.8-22.5-2.5-7.2-6.4-18.2-8.6-24.7-2.3-6.4-4.1-11.9-4.1-12.3 0-1.9-6.5-13.6-9.7-17.4-4.3-5-12-10.1-19-12.8-4.6-1.7-13.2-1.8-172.3-1.9-142.4-.2-168.3 0-173 1.2zM495.5 248h15l13.3 40.2c7.3 22.2 13.7 41.2 14.2 42.3.4 1.1 4.1 11.9 8 23.9 4 12.1 7.4 22.5 7.7 23.3.4 1.1-33 1.3-203.7 1.3-163 0-204.1-.3-203.7-1.3.2-.6 10-30.1 21.8-65.4l21.4-64.3 37.5-.2c20.6-.2 86.1-.2 145.5-.1 59.4.2 114.8.3 123 .3zm-293 191.7c17.9 5.6 30.4 22.3 30.6 41 .3 23.6-18.1 42.9-41.8 43.9-33.8 1.3-55.8-34.3-39.8-64.4 5.8-11 19.8-20.7 31.7-21.9 2.9-.3 5.4-.7 5.6-.8.7-.6 8.9.7 13.7 2.2zm320.1-.1c19.3 5.3 32 23.3 31 43.7-.6 12.1-4.3 20.4-12.6 28.8-4.5 4.5-14.6 10.5-19.2 11.3-1.3.3-2.3.5-2.3.6 0 .7-14.1.6-17.8-.1-9.8-1.8-21.2-9.3-27.1-17.8-6.9-9.9-9.5-25.5-6.1-36.8 4.9-16.5 19.4-29.1 35.5-31 2.5-.2 4.6-.6 4.8-.8.6-.5 8.6.7 13.8 2.1z"/></svg>