<svg xmlns="http://www.w3.org/2000/svg" width="92" height="45"><linearGradient id="a" x1="45.483" x2="45.483" y2="45.001" gradientUnits="userSpaceOnUse"><stop offset="0" stop-color="#00AEEF"/><stop offset=".212" stop-color="#0097DC"/><stop offset=".519" stop-color="#007CC5"/><stop offset=".792" stop-color="#006CB8"/><stop offset="1" stop-color="#0066B3"/></linearGradient><path fill="url(#a)" fill-rule="evenodd" d="M0 45h45.97l45-45H0v45" clip-rule="evenodd"/><path fill="#fff" fill-rule="evenodd" d="M53.98 9H45l.03 21.13L37.2 9h-7.75l-6.68 17.65c-.7-4.5-5.35-6.05-9-7.2-2.42-.78-4.98-1.92-4.95-3.18.02-1.04 1.37-2 4.05-1.85 1.8.1 3.4.24 6.55 1.77l3.1-5.43c-2.87-1.47-6.86-2.4-10.13-2.4h-.03c-3.8 0-7 1.24-8.96 3.27-1.36 1.42-2.1 3.23-2.13 5.22-.05 2.75.96 4.7 3.08 6.26 1.78 1.3 4.07 2.16 6.1 2.78 2.47.77 4.5 1.44 4.48 2.87-.02.52-.22 1-.6 1.4-.6.63-1.56.87-2.88.9-2.54.05-4.42-.35-7.4-2.12l-2.78 5.5c3 1.7 6.17 2.55 9.78 2.55h.8c3.15-.06 5.7-.82 7.73-2.45.12-.1.22-.18.33-.28l-.33 1.75 7.58-.02 1.36-3.48c1.44.5 3.06.76 4.8.76 1.67 0 3.25-.26 4.66-.72L38.9 36h13.6l.04-7.92h2.9c7 0 11.12-3.56 11.12-9.53C66.56 11.9 62.54 9 53.98 9zm-20.7 18.06c-1.04 0-2.02-.18-2.86-.5l2.84-8.95h.05l2.8 9c-.84.3-1.8.46-2.8.46zm21.23-5.14h-1.96V14.7h1.97c2.64 0 4.74.88 4.74 3.56 0 2.78-2.1 3.66-4.73 3.66" clip-rule="evenodd"/><path fill="none" d="M0 0h92v45H0z"/></svg>