<?xml version="1.0" standalone="no"?><!DOCTYPE svg PUBLIC "-//W3C//DTD SVG 1.1//EN" "http://www.w3.org/Graphics/SVG/1.1/DTD/svg11.dtd"><svg class="x-hidden-focus" version="1.1" id="Layer_1" xmlns:xlink="http://www.w3.org/1999/xlink" xml:space="preserve" xmlns="http://www.w3.org/2000/svg">
		<g style="display:inline;height:auto;min-height:0px;min-width:0px;overflow-x:visible;overflow-y:visible;text-align:center;width:auto;perspective-origin:0px 0px;transform-origin:0px 0px;">
			<path class="st0" d="M116.3,255H34.3c-2.1,0-3.8-1.7-3.8-3.8c0-2.1,1.7-3.8,3.8-3.8h82.1c2.1,0,3.8,1.7,3.8,3.8&#10;&#9;&#9;&#9;&#9;C120.1,253.3,118.4,255,116.3,255z" style="display:inline;height:auto;min-height:0px;min-width:0px;opacity:0.2;overflow-x:visible;overflow-y:visible;text-align:center;width:auto;perspective-origin:0px 0px;transform-origin:0px 0px;d:path('M 116.3 255 H 34.3 c -2.1 0 -3.8 -1.7 -3.8 -3.8 c 0 -2.1 1.7 -3.8 3.8 -3.8 h 82.1 c 2.1 0 3.8 1.7 3.8 3.8 C 120.1 253.3 118.4 255 116.3 255 Z');"/>
			<path class="st1" d="M73,251.1c-0.1-3.6-1.3-6.8-3.6-9.7c-2.4-3-5.4-4.9-9-5.6v-60h-7.2v60c-3.6,0.8-6.6,2.6-9,5.6&#10;&#9;&#9;&#9;&#9;c-2.3,2.9-3.5,6.1-3.6,9.7H73z" style="display:inline;height:auto;min-height:0px;min-width:0px;overflow-x:visible;overflow-y:visible;text-align:center;width:auto;perspective-origin:0px 0px;transform-origin:0px 0px;fill:rgb(44, 62, 88);d:path('M 73 251.1 c -0.1 -3.6 -1.3 -6.8 -3.6 -9.7 c -2.4 -3 -5.4 -4.9 -9 -5.6 v -60 h -7.2 v 60 c -3.6 0.8 -6.6 2.6 -9 5.6 c -2.3 2.9 -3.5 6.1 -3.6 9.7 H 73 Z');"/>
			<path class="st1" d="M110.5,251.1c-0.1-3.6-1.3-6.8-3.6-9.7c-2.4-3-5.4-4.9-9-5.6v-60h-7.2v60c-3.6,0.8-6.6,2.6-9,5.6&#10;&#9;&#9;&#9;&#9;c-2.3,2.9-3.5,6.1-3.6,9.7H110.5z" style="display:inline;height:auto;min-height:0px;min-width:0px;overflow-x:visible;overflow-y:visible;text-align:center;width:auto;perspective-origin:0px 0px;transform-origin:0px 0px;fill:rgb(44, 62, 88);d:path('M 110.5 251.1 c -0.1 -3.6 -1.3 -6.8 -3.6 -9.7 c -2.4 -3 -5.4 -4.9 -9 -5.6 v -60 h -7.2 v 60 c -3.6 0.8 -6.6 2.6 -9 5.6 c -2.3 2.9 -3.5 6.1 -3.6 9.7 H 110.5 Z');"/>
			<rect x="72.7" y="28.1" class="st2" width="5.8" height="46.7" style="display:inline;height:46.7px;min-height:0px;min-width:0px;overflow-x:visible;overflow-y:visible;text-align:center;width:5.8px;perspective-origin:0px 0px;transform-origin:0px 0px;fill:rgb(185, 214, 242);x:72.7px;y:28.1px;"/>
			<rect x="26.9" y="58.3" class="st3 x-hidden-focus" width="96.8" height="58.5" style="display:inline;height:58.5px;min-height:0px;min-width:0px;overflow-x:visible;overflow-y:visible;text-align:center;width:96.8px;perspective-origin:0px 0px;transform-origin:0px 0px;fill:rgb(99, 158, 225);x:26.9px;y:58.3px;"/>
			<rect x="40.4" y="126.6" class="st2" width="69.8" height="35.3" style="display:inline;height:35.3px;min-height:0px;min-width:0px;overflow-x:visible;overflow-y:visible;text-align:center;width:69.8px;perspective-origin:0px 0px;transform-origin:0px 0px;fill:rgb(185, 214, 242);x:40.4px;y:126.6px;"/>
			<path class="st2" d="M68.9,29.1c0.8,1.3,1.9,2.2,3.1,2.9h7.3c1.2-0.7,2.2-1.6,3.1-2.9c0.8-1.3,1.2-2.7,1.2-4.2&#10;&#9;&#9;&#9;&#9;c0-2.2-0.8-4.1-2.3-5.7c-1.6-1.6-3.4-2.3-5.7-2.3c-2.2,0-4.1,0.8-5.7,2.3c-1.6,1.6-2.3,3.4-2.3,5.7C67.6,26.4,68,27.8,68.9,29.1z&#10;&#9;&#9;&#9;&#9;&#9;M66.8,34.9c-1.4-1.3-2.6-2.9-3.3-4.6c-0.8-1.7-1.2-3.5-1.2-5.4c0-1.9,0.4-3.7,1.2-5.4c0.8-1.7,1.9-3.2,3.3-4.6L63.1,11&#10;&#9;&#9;&#9;&#9;c-1.9,1.7-3.4,3.7-4.5,6.2c-1.1,2.4-1.7,5-1.7,7.7c0,2.7,0.5,5.2,1.6,7.6c1.1,2.4,2.6,4.5,4.6,6.2L66.8,34.9z M73.7,22.9&#10;&#9;&#9;&#9;&#9;c0.5-0.5,1.1-0.7,1.9-0.7c0.8,0,1.4,0.3,1.9,0.7c0.5,0.5,0.7,1.1,0.7,1.9c0,0.8-0.2,1.4-0.7,1.9c-0.5,0.5-1.1,0.7-1.9,0.7&#10;&#9;&#9;&#9;&#9;c-0.8,0-1.4-0.3-1.9-0.7c-0.5-0.5-0.7-1.1-0.7-1.9C72.9,24.1,73.2,23.4,73.7,22.9z M84.4,34.9c1.4-1.3,2.6-2.9,3.3-4.6&#10;&#9;&#9;&#9;&#9;c0.8-1.7,1.2-3.5,1.2-5.4c0-1.9-0.4-3.7-1.2-5.4c-0.8-1.7-1.9-3.2-3.3-4.6l3.7-3.8c2,1.8,3.5,3.9,4.6,6.2c1.1,2.4,1.6,4.9,1.6,7.6&#10;&#9;&#9;&#9;&#9;c0,2.7-0.6,5.2-1.7,7.7C91.5,35,90,37,88.1,38.7L84.4,34.9z" style="display:inline;height:auto;min-height:0px;min-width:0px;overflow-x:visible;overflow-y:visible;text-align:center;width:auto;perspective-origin:0px 0px;transform-origin:0px 0px;fill:rgb(185, 214, 242);d:path('M 68.9 29.1 c 0.8 1.3 1.9 2.2 3.1 2.9 h 7.3 c 1.2 -0.7 2.2 -1.6 3.1 -2.9 c 0.8 -1.3 1.2 -2.7 1.2 -4.2 c 0 -2.2 -0.8 -4.1 -2.3 -5.7 c -1.6 -1.6 -3.4 -2.3 -5.7 -2.3 c -2.2 0 -4.1 0.8 -5.7 2.3 c -1.6 1.6 -2.3 3.4 -2.3 5.7 C 67.6 26.4 68 27.8 68.9 29.1 Z M 66.8 34.9 c -1.4 -1.3 -2.6 -2.9 -3.3 -4.6 c -0.8 -1.7 -1.2 -3.5 -1.2 -5.4 c 0 -1.9 0.4 -3.7 1.2 -5.4 c 0.8 -1.7 1.9 -3.2 3.3 -4.6 L 63.1 11 c -1.9 1.7 -3.4 3.7 -4.5 6.2 c -1.1 2.4 -1.7 5 -1.7 7.7 c 0 2.7 0.5 5.2 1.6 7.6 c 1.1 2.4 2.6 4.5 4.6 6.2 L 66.8 34.9 Z M 73.7 22.9 c 0.5 -0.5 1.1 -0.7 1.9 -0.7 c 0.8 0 1.4 0.3 1.9 0.7 c 0.5 0.5 0.7 1.1 0.7 1.9 c 0 0.8 -0.2 1.4 -0.7 1.9 c -0.5 0.5 -1.1 0.7 -1.9 0.7 c -0.8 0 -1.4 -0.3 -1.9 -0.7 c -0.5 -0.5 -0.7 -1.1 -0.7 -1.9 C 72.9 24.1 73.2 23.4 73.7 22.9 Z M 84.4 34.9 c 1.4 -1.3 2.6 -2.9 3.3 -4.6 c 0.8 -1.7 1.2 -3.5 1.2 -5.4 c 0 -1.9 -0.4 -3.7 -1.2 -5.4 c -0.8 -1.7 -1.9 -3.2 -3.3 -4.6 l 3.7 -3.8 c 2 1.8 3.5 3.9 4.6 6.2 c 1.1 2.4 1.6 4.9 1.6 7.6 c 0 2.7 -0.6 5.2 -1.7 7.7 C 91.5 35 90 37 88.1 38.7 L 84.4 34.9 Z');"/>
			<path class="st3" d="M110.2,161.1v7.5c0,8.7-6.7,15.8-15,15.8H56c-8.2,0-15-7.1-15-15.8v-7.5" style="display:inline;height:auto;min-height:0px;min-width:0px;overflow-x:visible;overflow-y:visible;text-align:center;width:auto;perspective-origin:0px 0px;transform-origin:0px 0px;fill:rgb(99, 158, 225);d:path('M 110.2 161.1 v 7.5 c 0 8.7 -6.7 15.8 -15 15.8 H 56 c -8.2 0 -15 -7.1 -15 -15.8 v -7.5');"/>
			<path class="st2" d="M51.4,145.2H39.5c-3,0-5.5,1-7.6,3.1c-2.1,2.1-3.1,4.6-3.1,7.6v14.2h-7.2v-14.2c0-4.9,1.8-9.2,5.3-12.7&#10;&#9;&#9;&#9;&#9;c3.5-3.5,7.7-5.3,12.7-5.3h11.9V145.2z" style="display:inline;height:auto;min-height:0px;min-width:0px;overflow-x:visible;overflow-y:visible;text-align:center;width:auto;perspective-origin:0px 0px;transform-origin:0px 0px;fill:rgb(185, 214, 242);d:path('M 51.4 145.2 H 39.5 c -3 0 -5.5 1 -7.6 3.1 c -2.1 2.1 -3.1 4.6 -3.1 7.6 v 14.2 h -7.2 v -14.2 c 0 -4.9 1.8 -9.2 5.3 -12.7 c 3.5 -3.5 7.7 -5.3 12.7 -5.3 h 11.9 V 145.2 Z');"/>
			<path class="st4" d="M103.5,89H47.7c-3.9,0-7.2-3.2-7.2-7.2c0-3.9,3.2-7.2,7.2-7.2h55.7c3.9,0,7.2,3.2,7.2,7.2&#10;&#9;&#9;&#9;&#9;C110.6,85.8,107.4,89,103.5,89z" style="display:inline;height:auto;min-height:0px;min-width:0px;opacity:0.3;overflow-x:visible;overflow-y:visible;text-align:center;width:auto;perspective-origin:0px 0px;transform-origin:0px 0px;fill:rgb(246, 231, 104);d:path('M 103.5 89 H 47.7 c -3.9 0 -7.2 -3.2 -7.2 -7.2 c 0 -3.9 3.2 -7.2 7.2 -7.2 h 55.7 c 3.9 0 7.2 3.2 7.2 7.2 C 110.6 85.8 107.4 89 103.5 89 Z');"/>
			<g style="display:inline;height:auto;min-height:0px;min-width:0px;overflow-x:visible;overflow-y:visible;text-align:center;width:auto;perspective-origin:0px 0px;transform-origin:0px 0px;">
				<path class="st2" d="M108,149.4h26.9c3,0,5.5-1,7.6-3.1c2.1-2.1,3.1-4.6,3.1-7.6v-9h7.2v9c0,4.9-1.8,9.2-5.3,12.7&#10;&#9;&#9;&#9;&#9;&#9;c-3.5,3.5-7.7,5.3-12.7,5.3H108V149.4z" style="display:inline;height:auto;min-height:0px;min-width:0px;overflow-x:visible;overflow-y:visible;text-align:center;width:auto;perspective-origin:0px 0px;transform-origin:0px 0px;fill:rgb(185, 214, 242);d:path('M 108 149.4 h 26.9 c 3 0 5.5 -1 7.6 -3.1 c 2.1 -2.1 3.1 -4.6 3.1 -7.6 v -9 h 7.2 v 9 c 0 4.9 -1.8 9.2 -5.3 12.7 c -3.5 3.5 -7.7 5.3 -12.7 5.3 H 108 V 149.4 Z');"/>
				<path class="st1" d="M152.9,125.2v12.6h-7.2v-12.6c-3.6-0.7-6.6-2.6-9-5.6c-2.4-3-3.6-6.4-3.6-10.1c0-4.4,1.5-8.1,4.5-11.2&#10;&#9;&#9;&#9;&#9;&#9;l5.1,5.1c-1.5,1.7-2.3,3.7-2.3,6.1c0,2.5,0.9,4.7,2.6,6.4c1.7,1.7,3.9,2.6,6.4,2.6c2.5,0,4.7-0.9,6.4-2.6c1.7-1.7,2.6-3.9,2.6-6.4&#10;&#9;&#9;&#9;&#9;&#9;c0-2.5-0.8-4.5-2.4-6.2l5.1-5.1c3,3.1,4.5,6.9,4.5,11.3c0,3.7-1.2,7.1-3.6,10.1C159.5,122.6,156.5,124.5,152.9,125.2z" style="display:inline;height:auto;min-height:0px;min-width:0px;overflow-x:visible;overflow-y:visible;text-align:center;width:auto;perspective-origin:0px 0px;transform-origin:0px 0px;fill:rgb(44, 62, 88);d:path('M 152.9 125.2 v 12.6 h -7.2 v -12.6 c -3.6 -0.7 -6.6 -2.6 -9 -5.6 c -2.4 -3 -3.6 -6.4 -3.6 -10.1 c 0 -4.4 1.5 -8.1 4.5 -11.2 l 5.1 5.1 c -1.5 1.7 -2.3 3.7 -2.3 6.1 c 0 2.5 0.9 4.7 2.6 6.4 c 1.7 1.7 3.9 2.6 6.4 2.6 c 2.5 0 4.7 -0.9 6.4 -2.6 c 1.7 -1.7 2.6 -3.9 2.6 -6.4 c 0 -2.5 -0.8 -4.5 -2.4 -6.2 l 5.1 -5.1 c 3 3.1 4.5 6.9 4.5 11.3 c 0 3.7 -1.2 7.1 -3.6 10.1 C 159.5 122.6 156.5 124.5 152.9 125.2 Z');"/>
			</g>
			<path class="st1" d="M21.6,182.1V162h7.2v20.1c3.6,0.7,6.6,2.6,9,5.6c2.4,3,3.6,6.4,3.6,10.1c0,4.4-1.5,8.1-4.5,11.2l-5.1-5.1&#10;&#9;&#9;&#9;&#9;c1.5-1.7,2.3-3.7,2.3-6.1c0-2.5-0.9-4.7-2.6-6.4c-1.7-1.7-3.9-2.6-6.4-2.6c-2.5,0-4.7,0.9-6.4,2.6c-1.7,1.7-2.6,3.9-2.6,6.4&#10;&#9;&#9;&#9;&#9;c0,2.5,0.8,4.5,2.4,6.2l-5.1,5.1c-3-3.1-4.5-6.9-4.5-11.3c0-3.7,1.2-7.1,3.6-10.1C15,184.7,18,182.8,21.6,182.1z" style="display:inline;height:auto;min-height:0px;min-width:0px;overflow-x:visible;overflow-y:visible;text-align:center;width:auto;perspective-origin:0px 0px;transform-origin:0px 0px;fill:rgb(44, 62, 88);d:path('M 21.6 182.1 V 162 h 7.2 v 20.1 c 3.6 0.7 6.6 2.6 9 5.6 c 2.4 3 3.6 6.4 3.6 10.1 c 0 4.4 -1.5 8.1 -4.5 11.2 l -5.1 -5.1 c 1.5 -1.7 2.3 -3.7 2.3 -6.1 c 0 -2.5 -0.9 -4.7 -2.6 -6.4 c -1.7 -1.7 -3.9 -2.6 -6.4 -2.6 c -2.5 0 -4.7 0.9 -6.4 2.6 c -1.7 1.7 -2.6 3.9 -2.6 6.4 c 0 2.5 0.8 4.5 2.4 6.2 l -5.1 5.1 c -3 -3.1 -4.5 -6.9 -4.5 -11.3 c 0 -3.7 1.2 -7.1 3.6 -10.1 C 15 184.7 18 182.8 21.6 182.1 Z');"/>
			<circle class="st5" cx="47.5" cy="81.9" r="7.1" style="display:inline;height:auto;min-height:0px;min-width:0px;overflow-x:visible;overflow-y:visible;text-align:center;width:auto;perspective-origin:0px 0px;transform-origin:0px 0px;fill:rgb(246, 231, 104);cx:47.5px;cy:81.9px;r:7.1px;"/>
			<circle class="st5" cx="103.8" cy="81.9" r="7.1" style="display:inline;height:auto;min-height:0px;min-width:0px;overflow-x:visible;overflow-y:visible;text-align:center;width:auto;perspective-origin:0px 0px;transform-origin:0px 0px;fill:rgb(246, 231, 104);cx:103.8px;cy:81.9px;r:7.1px;"/>
			<g style="display:inline;height:auto;min-height:0px;min-width:0px;overflow-x:visible;overflow-y:visible;text-align:center;width:auto;perspective-origin:0px 0px;transform-origin:0px 0px;">
				<path d="M78.1,55.8c3.1-5.3,7.4-9.5,12.7-12.7c5.3-3.1,11.1-4.7,17.4-4.7c6.3,0,12.1,1.6,17.4,4.7c5.3,3.1,9.5,7.4,12.6,12.7&#10;&#9;&#9;&#9;&#9;&#9;c3.1,5.3,4.6,11.1,4.6,17.4c0,7.9-2.6,15.2-7.9,21.8l37.9,37.9c0.7,0.6,1.1,1.4,1.1,2.5c0,1-0.3,1.9-1,2.6c-0.7,0.7-1.5,1-2.6,1&#10;&#9;&#9;&#9;&#9;&#9;c-1,0-1.9-0.4-2.5-1.1L129.9,100c-6.6,5.2-13.8,7.9-21.8,7.9c-6.3,0-12.1-1.5-17.4-4.6c-5.3-3.1-9.5-7.3-12.7-12.6&#10;&#9;&#9;&#9;&#9;&#9;c-3.1-5.3-4.7-11.1-4.7-17.4C73.4,67,74.9,61.2,78.1,55.8z M131.9,59.3c-2.5-4.2-5.8-7.5-10-10c-4.2-2.5-8.8-3.7-13.8-3.7&#10;&#9;&#9;&#9;&#9;&#9;c-5,0-9.6,1.2-13.8,3.7c-4.2,2.5-7.5,5.8-10,10c-2.5,4.2-3.7,8.8-3.7,13.8c0,5,1.2,9.6,3.7,13.8c2.5,4.2,5.8,7.5,10,10&#10;&#9;&#9;&#9;&#9;&#9;c4.2,2.5,8.8,3.7,13.8,3.7c5,0,9.6-1.2,13.8-3.7c4.2-2.5,7.5-5.8,10-10c2.5-4.2,3.7-8.8,3.7-13.7&#10;&#9;&#9;&#9;&#9;&#9;C135.6,68.2,134.3,63.5,131.9,59.3z" style="display:inline;height:auto;min-height:0px;min-width:0px;overflow-x:visible;overflow-y:visible;text-align:center;width:auto;perspective-origin:0px 0px;transform-origin:0px 0px;d:path('M 78.1 55.8 c 3.1 -5.3 7.4 -9.5 12.7 -12.7 c 5.3 -3.1 11.1 -4.7 17.4 -4.7 c 6.3 0 12.1 1.6 17.4 4.7 c 5.3 3.1 9.5 7.4 12.6 12.7 c 3.1 5.3 4.6 11.1 4.6 17.4 c 0 7.9 -2.6 15.2 -7.9 21.8 l 37.9 37.9 c 0.7 0.6 1.1 1.4 1.1 2.5 c 0 1 -0.3 1.9 -1 2.6 c -0.7 0.7 -1.5 1 -2.6 1 c -1 0 -1.9 -0.4 -2.5 -1.1 L 129.9 100 c -6.6 5.2 -13.8 7.9 -21.8 7.9 c -6.3 0 -12.1 -1.5 -17.4 -4.6 c -5.3 -3.1 -9.5 -7.3 -12.7 -12.6 c -3.1 -5.3 -4.7 -11.1 -4.7 -17.4 C 73.4 67 74.9 61.2 78.1 55.8 Z M 131.9 59.3 c -2.5 -4.2 -5.8 -7.5 -10 -10 c -4.2 -2.5 -8.8 -3.7 -13.8 -3.7 c -5 0 -9.6 1.2 -13.8 3.7 c -4.2 2.5 -7.5 5.8 -10 10 c -2.5 4.2 -3.7 8.8 -3.7 13.8 c 0 5 1.2 9.6 3.7 13.8 c 2.5 4.2 5.8 7.5 10 10 c 4.2 2.5 8.8 3.7 13.8 3.7 c 5 0 9.6 -1.2 13.8 -3.7 c 4.2 -2.5 7.5 -5.8 10 -10 c 2.5 -4.2 3.7 -8.8 3.7 -13.7 C 135.6 68.2 134.3 63.5 131.9 59.3 Z');"/>
			</g>
			<path class="st1" d="M152.9,125.2v12.6h-7.2v-12.6c-3.6-0.7,1-6.7,3.6-6.7c2.5,0,4.7-0.9,6.4-2.6c1.7-1.7,2.6-3.9,2.6-6.4&#10;&#9;&#9;&#9;&#9;c0-2.5-0.8-4.5-2.4-6.2l5.1-5.1c3,3.1,4.5,6.9,4.5,11.3c0,3.7-1.2,7.1-3.6,10.1C159.5,122.6,156.5,124.5,152.9,125.2z" style="display:inline;height:auto;min-height:0px;min-width:0px;overflow-x:visible;overflow-y:visible;text-align:center;width:auto;perspective-origin:0px 0px;transform-origin:0px 0px;fill:rgb(44, 62, 88);d:path('M 152.9 125.2 v 12.6 h -7.2 v -12.6 c -3.6 -0.7 1 -6.7 3.6 -6.7 c 2.5 0 4.7 -0.9 6.4 -2.6 c 1.7 -1.7 2.6 -3.9 2.6 -6.4 c 0 -2.5 -0.8 -4.5 -2.4 -6.2 l 5.1 -5.1 c 3 3.1 4.5 6.9 4.5 11.3 c 0 3.7 -1.2 7.1 -3.6 10.1 C 159.5 122.6 156.5 124.5 152.9 125.2 Z');"/>
			<path class="st2" d="M131.9,59.3c-2.5-4.2-5.8-7.5-10-10c-4.2-2.5-8.8-3.7-13.8-3.7c-5,0-9.6,1.2-13.8,3.7c-4.2,2.5-7.5,5.8-10,10&#10;&#9;&#9;&#9;&#9;c-2.5,4.2-3.7,8.8-3.7,13.8c0,5,1.2,9.6,3.7,13.8c2.5,4.2,5.8,7.5,10,10c4.2,2.5,8.8,3.7,13.8,3.7c5,0,9.6-1.2,13.8-3.7&#10;&#9;&#9;&#9;&#9;c4.2-2.5,7.5-5.8,10-10c2.5-4.2,3.7-8.8,3.7-13.7C135.6,68.2,134.3,63.5,131.9,59.3z" style="display:inline;height:auto;min-height:0px;min-width:0px;overflow-x:visible;overflow-y:visible;text-align:center;width:auto;perspective-origin:0px 0px;transform-origin:0px 0px;fill:rgb(185, 214, 242);d:path('M 131.9 59.3 c -2.5 -4.2 -5.8 -7.5 -10 -10 c -4.2 -2.5 -8.8 -3.7 -13.8 -3.7 c -5 0 -9.6 1.2 -13.8 3.7 c -4.2 2.5 -7.5 5.8 -10 10 c -2.5 4.2 -3.7 8.8 -3.7 13.8 c 0 5 1.2 9.6 3.7 13.8 c 2.5 4.2 5.8 7.5 10 10 c 4.2 2.5 8.8 3.7 13.8 3.7 c 5 0 9.6 -1.2 13.8 -3.7 c 4.2 -2.5 7.5 -5.8 10 -10 c 2.5 -4.2 3.7 -8.8 3.7 -13.7 C 135.6 68.2 134.3 63.5 131.9 59.3 Z');"/>
			<g style="display:inline;height:auto;min-height:0px;min-width:0px;overflow-x:visible;overflow-y:visible;text-align:center;width:auto;perspective-origin:0px 0px;transform-origin:0px 0px;">
				<defs style="display:inline;height:auto;min-height:0px;min-width:0px;overflow-x:visible;overflow-y:visible;text-align:center;width:auto;perspective-origin:0px 0px;transform-origin:0px 0px;">
					<path id="SVGID_1_" d="M131.9,59.3c-2.5-4.2-5.8-7.5-10-10c-4.2-2.5-8.8-3.7-13.8-3.7c-5,0-9.6,1.2-13.8,3.7&#10;&#9;&#9;&#9;&#9;&#9;&#9;c-4.2,2.5-7.5,5.8-10,10c-2.5,4.2-3.7,8.8-3.7,13.8c0,5,1.2,9.6,3.7,13.8c2.5,4.2,5.8,7.5,10,10c4.2,2.5,8.8,3.7,13.8,3.7&#10;&#9;&#9;&#9;&#9;&#9;&#9;c5,0,9.6-1.2,13.8-3.7c4.2-2.5,7.5-5.8,10-10c2.5-4.2,3.7-8.8,3.7-13.7C135.6,68.2,134.3,63.5,131.9,59.3z" style="display:inline;height:auto;min-height:0px;min-width:0px;overflow-x:visible;overflow-y:visible;text-align:center;width:auto;perspective-origin:0px 0px;transform-origin:0px 0px;d:path('M 131.9 59.3 c -2.5 -4.2 -5.8 -7.5 -10 -10 c -4.2 -2.5 -8.8 -3.7 -13.8 -3.7 c -5 0 -9.6 1.2 -13.8 3.7 c -4.2 2.5 -7.5 5.8 -10 10 c -2.5 4.2 -3.7 8.8 -3.7 13.8 c 0 5 1.2 9.6 3.7 13.8 c 2.5 4.2 5.8 7.5 10 10 c 4.2 2.5 8.8 3.7 13.8 3.7 c 5 0 9.6 -1.2 13.8 -3.7 c 4.2 -2.5 7.5 -5.8 10 -10 c 2.5 -4.2 3.7 -8.8 3.7 -13.7 C 135.6 68.2 134.3 63.5 131.9 59.3 Z');"/>
				</defs>
				<clipPath id="SVGID_2_" style="display:inline;height:auto;min-height:0px;min-width:0px;overflow-x:visible;overflow-y:visible;text-align:center;width:auto;perspective-origin:0px 0px;transform-origin:0px 0px;">
					<use xlink:href="#SVGID_1_" style="display:inline;height:auto;min-height:0px;min-width:0px;overflow-x:visible;overflow-y:visible;text-align:center;width:auto;perspective-origin:0px 0px;transform-origin:0px 0px;"/>
				</clipPath>
				<g class="st6" style="display:inline;height:auto;min-height:0px;min-width:0px;overflow-x:visible;overflow-y:visible;text-align:center;width:auto;perspective-origin:0px 0px;transform-origin:0px 0px;">
					<path class="st4 x-hidden-focus" d="M108,88.9H72.3c-8.9,0-16.2-7.3-16.2-16.2c0-8.9,7.3-16.2,16.2-16.2H108c8.9,0,16.2,7.3,16.2,16.2&#10;&#9;&#9;&#9;&#9;&#9;&#9;C124.2,81.6,116.9,88.9,108,88.9z" style="display:inline;height:auto;min-height:0px;min-width:0px;opacity:0.3;overflow-x:visible;overflow-y:visible;text-align:center;width:auto;perspective-origin:0px 0px;transform-origin:0px 0px;fill:rgb(246, 231, 104);d:path('M 108 88.9 H 72.3 c -8.9 0 -16.2 -7.3 -16.2 -16.2 c 0 -8.9 7.3 -16.2 16.2 -16.2 H 108 c 8.9 0 16.2 7.3 16.2 16.2 C 124.2 81.6 116.9 88.9 108 88.9 Z');"/>
					<circle class="st5" cx="108.1" cy="73" r="16.1" style="display:inline;height:auto;min-height:0px;min-width:0px;overflow-x:visible;overflow-y:visible;text-align:center;width:auto;perspective-origin:0px 0px;transform-origin:0px 0px;fill:rgb(246, 231, 104);cx:108.1px;cy:73px;r:16.1px;"/>
				</g>
			</g>
		</g>
		</svg>